/vscmnt/brussel_pixiu_data/_data_brussel/112/vsc11236/PredSimResults/SUBJ09opt3D/trackIG/worker_06.mot
version=1
nRows=11
nColumns=50
inDegrees=yes
endheader
                time	         pelvis_tilt	         pelvis_list	     pelvis_rotation	           pelvis_tx	           pelvis_ty	           pelvis_tz	       hip_flexion_r	     hip_adduction_r	      hip_rotation_r	        knee_angle_r	       ankle_angle_r	         mtp_angle_r	       hip_flexion_l	     hip_adduction_l	      hip_rotation_l	        knee_angle_l	       ankle_angle_l	         mtp_angle_l	    lumbar_extension	      lumbar_bending	     lumbar_rotation	 ercspn_r/activation	 intobl_r/activation	 extobl_r/activation	    abd_r/activation	    add_r/activation	hamstrings_r/activation	bifemsh_r/activation	glut_max_r/activation	iliopsoas_r/activation	rect_fem_r/activation	  vasti_r/activation	gastroc_r/activation	 soleus_r/activation	tib_ant_r/activation	 ercspn_l/activation	 intobl_l/activation	 extobl_l/activation	    abd_l/activation	    add_l/activation	hamstrings_l/activation	bifemsh_l/activation	glut_max_l/activation	iliopsoas_l/activation	rect_fem_l/activation	  vasti_l/activation	gastroc_l/activation	 soleus_l/activation	tib_ant_l/activation	
          1.34107352	         -3.73273234	         -0.42988389	          7.51515118	          1.47518087	          0.99386492	         -0.00310336	         27.56472645	         -1.94899367	         -8.35772908	         -6.07634285	          3.37221263	          0.23867099	        -12.58589056	         -2.11327849	         -6.49961551	        -11.25023359	          5.04882311	         34.84349415	        -13.79258311	         -2.08916872	         -6.85143765	          0.01922683	          0.16721505	          0.03637161	          0.01000019	          0.21286568	          0.04770922	          0.11609479	          0.06884860	          0.12347156	          0.01502263	          0.01000086	          0.01494855	          0.01000090	          0.30493723	          0.01224077	          0.01000056	          0.01000096	          0.03259469	          0.01001792	          0.01561369	          0.11271842	          0.01497016	          0.01387515	          0.01000436	          0.01000106	          0.27917450	          0.22965188	          0.01223528	
          1.35448425	         -3.79648070	         -0.51473213	          7.47924940	          1.49434961	          0.99174987	         -0.00212342	         27.40502288	         -1.78293633	         -8.49486248	         -7.60264581	          2.98631383	          0.20814267	        -13.23590611	         -2.41870993	         -6.96987636	        -11.87823785	          4.03114489	         36.33711486	        -13.27876283	         -1.64951567	         -7.06849074	          0.01571487	          0.13666831	          0.02972726	          0.05913559	          0.18214749	          0.05721903	          0.09488692	          0.09772451	          0.10091570	          0.01227836	          0.01000074	          0.01223912	          0.01223545	          0.33856173	          0.01000517	          0.01000020	          0.01000402	          0.02664028	          0.01000090	          0.01276164	          0.09212854	          0.01223549	          0.01134158	          0.01000111	          0.01000125	          0.25443941	          0.20662530	          0.01000020	
          1.36789499	         -3.84121299	         -0.61130238	          7.40782145	          1.51385453	          0.98996807	         -0.00106141	         27.13038933	         -1.60810510	         -8.66744888	         -8.97310531	          2.41831707	          0.20272926	        -13.71643138	         -2.76210228	         -7.45804161	        -12.85680426	          2.86301124	         37.81002033	        -12.74426805	         -1.19369563	         -7.25103129	          0.02139006	          0.11170168	          0.02429670	          0.10779109	          0.19162606	          0.05218539	          0.07755322	          0.12719818	          0.08248036	          0.01003550	          0.01000130	          0.01000345	          0.01000039	          0.38017848	          0.01000409	          0.01000011	          0.01000045	          0.02177363	          0.01000060	          0.01043058	          0.07529921	          0.01000042	          0.01490811	          0.01000346	          0.01000049	          0.21397532	          0.18289748	          0.01000013	
          1.38130572	         -3.86757270	         -0.71004409	          7.30102112	          1.53335698	          0.98872562	          0.00009102	         26.89216690	         -1.43797999	         -8.88708164	        -10.43376329	          1.85373449	          0.17330540	        -13.92563818	         -3.14464972	         -7.95819649	        -14.33001762	          1.55978287	         39.14636152	        -12.23008169	         -0.73264353	         -7.39527199	          0.02189896	          0.09129595	          0.01985821	          0.15261966	          0.21136398	          0.05365286	          0.06338600	          0.11936026	          0.06741281	          0.01000056	          0.07168137	          0.01000098	          0.01000065	          0.40286589	          0.05497870	          0.01000034	          0.01000040	          0.01779602	          0.01000212	          0.02140985	          0.06154399	          0.01000051	          0.01218604	          0.01000190	          0.01496043	          0.17488621	          0.14948592	          0.01000010	
          1.39471646	         -3.87709107	         -0.81884813	          7.17149946	          1.55263679	          0.98817460	          0.00131928	         26.71672962	         -1.26069485	         -9.07841124	        -12.06254110	          1.59375172	          0.13771027	        -13.79402534	         -3.58678350	         -8.46729208	        -16.38826627	          0.15497365	         40.14920552	        -11.75596390	         -0.25834535	         -7.50754250	          0.01791248	          0.07461796	          0.01623055	          0.17699327	          0.21929693	          0.05242174	          0.05180686	          0.13747889	          0.05509781	          0.01000075	          0.14992758	          0.01000156	          0.01000090	          0.40273603	          0.08343356	          0.01000105	          0.01000041	          0.01454504	          0.07779290	          0.03898214	          0.05030175	          0.01000025	          0.01000410	          0.01000078	          0.01222820	          0.14293788	          0.12217776	          0.01000015	
          1.40812719	         -3.87243155	         -0.92769203	          7.02286665	          1.57150973	          0.98843688	          0.00259053	         26.54073441	         -1.07099619	         -9.20148511	        -13.73404621	          1.69794049	          0.10730925	        -13.25803396	         -4.08657536	         -9.03387358	        -19.11338869	         -1.30104189	         40.52906207	        -11.33885252	          0.21869149	         -7.58913152	          0.01578296	          0.06098672	          0.01326563	          0.18505876	          0.25368275	          0.05462173	          0.04234301	          0.14259310	          0.04503252	          0.01000057	          0.17913112	          0.01000093	          0.01000045	          0.37475118	          0.08611871	          0.01160201	          0.01000045	          0.01188797	          0.14168588	          0.04232309	          0.04111378	          0.01000015	          0.01000445	          0.01000055	          0.01000056	          0.11682589	          0.09985825	          0.01000018	
          1.42153793	         -3.85530849	         -1.01245951	          6.85296405	          1.58990346	          0.98949871	          0.00386699	         26.29005911	         -0.88413786	         -9.26592726	        -15.30139093	          2.11945897	          0.10133200	        -12.29099909	         -4.63707226	         -9.70061836	        -22.55431039	         -2.72609550	         39.94504848	        -10.98540360	          0.67320587	         -7.63694085	          0.01290501	          0.04984564	          0.01084242	          0.18146613	          0.26047002	          0.05918715	          0.03460804	          0.14491148	          0.03680597	          0.01000053	          0.20714327	          0.01000227	          0.01000188	          0.32410630	          0.07426372	          0.01000230	          0.01000053	          0.01000005	          0.20236652	          0.04701324	          0.03360929	          0.01000011	          0.01001198	          0.01000044	          0.01000020	          0.09548405	          0.08161608	          0.01000027	
          1.43494866	         -3.82705322	         -1.05019964	          6.65644503	          1.60781104	          0.99128413	          0.00510738	         25.88313980	         -0.71190455	         -9.26988700	        -16.59922287	          2.75528740	          0.17539778	        -10.91767769	         -5.23047436	        -10.45707575	        -26.62474819	         -4.23713833	         38.37192089	        -10.69531655	          1.08283007	         -7.64438567	          0.01054874	          0.04073984	          0.01000078	          0.17729151	          0.26115968	          0.06273368	          0.02828611	          0.15867468	          0.03008225	          0.01000037	          0.21696167	          0.01000140	          0.01000064	          0.27418166	          0.06069872	          0.01382204	          0.01000092	          0.01000008	          0.26097607	          0.04105207	          0.04194955	          0.01000013	          0.01000414	          0.01000032	          0.01000010	          0.07804096	          0.06670640	          0.03477653	
          1.44835940	         -3.78865453	         -1.02223299	          6.42996241	          1.62521724	          0.99365224	          0.00627705	         25.27927981	         -0.56898554	         -9.20627007	        -17.52370815	          3.42343026	          0.35837878	         -9.19895515	         -5.85473524	        -11.24938136	        -31.18887432	         -5.76300134	         35.60005386	        -10.46968246	          1.42830465	         -7.60441216	          0.01000234	          0.03329749	          0.01000064	          0.17248666	          0.21345272	          0.06148095	          0.02311907	          0.13163862	          0.02458682	          0.01000041	          0.22454479	          0.01000094	          0.01000043	          0.22994306	          0.06891380	          0.04218410	          0.03915373	          0.01000006	          0.21330494	          0.03355287	          0.03429122	          0.01000014	          0.01000631	          0.01000037	          0.01000008	          0.06378440	          0.05452044	          0.08997851	
          1.46177013	         -3.74008965	         -0.92904883	          6.17543440	          1.64207598	          0.99641170	          0.00738416	         24.50819989	         -0.45961808	         -9.06612411	        -18.11336375	          4.07233898	          0.67236770	         -7.23168756	         -6.48763672	        -11.94616930	        -36.04035548	         -7.10273790	         31.50169974	        -10.31508635	          1.70206918	         -7.51230494	          0.01000236	          0.02721472	          0.01000043	          0.14099358	          0.17508819	          0.05863610	          0.01889592	          0.11219028	          0.02009531	          0.01000050	          0.23205459	          0.01000084	          0.01000052	          0.19142349	          0.09378587	          0.06985702	          0.10175670	          0.01130293	          0.17433840	          0.02742350	          0.02802885	          0.01000251	          0.01000212	          0.01000139	          0.01000014	          0.05213224	          0.04456062	          0.18158211	
          1.47518087	         -3.68135705	         -0.79205946	          5.88593435	          1.65834133	          0.99936800	          0.00841425	         23.62109329	         -0.37431937	         -8.87109419	        -18.44277712	          4.66257889	          1.09733972	         -5.13686611	         -7.02778233	        -12.36778557	        -40.89050145	         -7.73964505	         26.65941984	        -10.23734622	          1.92144561	         -7.35782856	          0.01000120	          0.02224316	          0.01000037	          0.11928105	          0.16803729	          0.05305930	          0.01544429	          0.09290787	          0.01642432	          0.01000058	          0.21943896	          0.01000084	          0.01000058	          0.16091347	          0.10871423	          0.07269362	          0.13019797	          0.01393749	          0.14249029	          0.02241383	          0.03146086	          0.01000310	          0.01000247	          0.01000252	          0.01000009	          0.04260875	          0.03642027	          0.19851733	
